PathFileType	4	(X/Y/Z)	Patient4_TMGait_0pt4_03_right_03.trc.trc
DataRate	CameraRate	NumFrames	NumMarkers	Units	OrigDataRate	OrigDataStartFrame	OrigNumFrames
73.684210526316	73.684210526316	4	33	mm	73.684210526316	71	       141
Frame#	Time	Sacral			L.Shoulder			Chest			R.Shoulder			Neck			R.ASIS			L.ASIS			R.Thigh.Superior			R.Thigh.Lateral			R.Thigh.Inferior			R.Patella			L.Thigh.Superior			L.Thigh.Lateral			L.Thigh.Inferior			L.Patella			L.Shank.Superior			L.Shank.Lateral			L.Shank.Inferior			R.Shank.Superior			R.Shank.Lateral			R.Shank.Inferior			R.Heel			R.Midfoot.Superior			R.Midfoot.Lateral			R.Toe			L.Heel			L.Midfoot.Lateral			L.Midfoot.Superior			L.Toe			L.Elbow			L.Wrist			R.Elbow			R.Wrist			
		X1	Y1	Z1	X2	Y2	Z2	X3	Y3	Z3	X4	Y4	Z4	X5	Y5	Z5	X6	Y6	Z6	X7	Y7	Z7	X8	Y8	Z8	X9	Y9	Z9	X10	Y10	Z10	X11	Y11	Z11	X12	Y12	Z12	X13	Y13	Z13	X14	Y14	Z14	X15	Y15	Z15	X16	Y16	Z16	X17	Y17	Z17	X18	Y18	Z18	X19	Y19	Z19	X20	Y20	Z20	X21	Y21	Z21	X22	Y22	Z22	X23	Y23	Z23	X24	Y24	Z24	X25	Y25	Z25	X26	Y26	Z26	X27	Y27	Z27	X28	Y28	Z28	X29	Y29	Z29	X30	Y30	Z30	X31	Y31	Z31	X32	Y32	Z32	X33	Y33	Z33	

71	3.750000000000	806.919021374001	1004.334702612375	534.951312925667	946.832492764420	1434.724987542581	343.094860252750	1076.367496128511	1366.561917932824	483.814208291581	1021.458997447538	1434.046144842502	671.157359552875	952.063638540973	1492.683277352143	502.561859430253	1044.383559485933	938.722800252994	626.215582901109	1002.557946045308	959.342617067619	353.383057169202	1037.101098254542	726.221864615703	603.356914691977	932.219068725135	634.019023036481	669.535833022586	989.975429857421	568.057625086333	590.412103386082	971.820652439860	485.747602921399	597.360920708359	1074.964837442669	769.644099655541	370.287942956817	1012.803152187593	640.726237437439	299.462671190642	1122.131600185784	581.219897802537	347.109020707043	1144.598189964612	514.214357707236	343.984320357168	1122.876392562283	441.359538171980	335.757683601180	1042.886708516460	317.655189642610	289.844058113553	1125.906251818852	211.373347961194	336.228398751868	935.348504893272	402.100496995120	603.696945458403	855.334124561281	303.922326354899	664.604381512296	892.194323027425	206.229512441353	600.383932224338	751.773801267499	43.294131034469	565.000657843001	923.104852755597	96.431862743479	603.155471802660	834.324705907533	35.757089050688	639.662178855963	1042.881559159092	43.327880214488	630.006639559219	1033.069828728208	40.670365318824	380.360617976958	1099.847607109029	40.727369332060	294.338182698279	1178.353116726069	111.176816326019	311.355740049255	1306.270519483215	71.533584236659	272.555852190125	810.800580669829	1104.823749605387	262.615072329681	792.512488231568	843.424816836402	270.958989776124	1171.919979234657	1135.765286404291	799.692397304280	1402.901140318567	1217.281722288829	737.725246019288	
72	3.763571428571	807.200184155421	1003.702056666764	531.635362627261	947.235705244745	1433.848025714536	339.761981955568	1076.383179277204	1366.073504824123	481.037768600625	1020.623885710806	1433.648011350287	668.124251955694	951.878270921731	1492.021948823189	499.248144447195	1044.433395871900	938.103224874332	624.123018766564	1003.884399826374	958.388483210727	351.138729260834	1036.713353929355	725.294369541302	601.760324042570	931.135636550818	633.541523949204	667.618894778940	988.922109932546	567.167972355027	588.874296925505	970.404613405142	484.566850036775	595.764175348319	1076.207469144921	768.016244011806	369.804128208400	1012.952432269464	639.267334044322	299.782857826222	1121.383171211065	579.278435881464	348.415315208497	1142.389691421783	511.340658281764	345.963065689053	1119.988574184741	438.229849505590	337.367558206607	1038.328383908649	315.542961183349	291.678134768320	1119.214874472158	208.202873485585	339.119359231184	933.027619933985	401.274390179604	602.297406096862	852.175690961262	304.025290168811	663.634842321830	887.935344131808	205.807540010091	599.713951549388	746.348166936809	43.414468539841	564.971456012464	917.695400296835	96.396034341689	603.086884184232	828.870989920664	35.760772159630	639.627004888590	1037.434280732570	43.132426696528	630.054791951433	1022.935470607024	40.140804005628	383.303722925385	1089.992559789620	39.055282260240	297.399922329744	1170.142243320760	107.235409139355	315.212265091511	1297.493940343482	64.563175421691	276.607315442676	813.785019630002	1102.792106008427	257.984627743289	801.518951093072	840.911905071793	264.485770645128	1167.635206945728	1133.176623269333	797.138144619271	1399.782136808556	1212.228998920925	736.331506609386	
73	3.777142857143	807.485672630947	1003.088039435675	528.089237922671	947.921188743959	1432.999459258793	336.208964421011	1076.487329620544	1365.644523664022	478.230462753770	1019.645822992777	1433.349965367268	664.976848273598	951.765206004826	1491.442468261067	495.730841969501	1044.466609625669	937.549198783624	621.995617475875	1005.346420053243	957.546199097960	348.880891462930	1036.645029539564	724.468842431070	600.020938329130	930.510443522893	633.022761659465	665.493740105025	988.418412643890	566.266273668033	587.120173902892	969.605951900317	483.280003531115	593.943155850483	1077.441033910900	766.342388907354	369.417786512252	1013.215606017667	638.090999187127	299.787308979868	1120.537740566959	577.449857359178	349.722539176110	1140.016202711623	508.610840652946	347.778962319601	1117.048652894824	435.354157719595	338.652193764116	1033.984611223747	313.618338869693	292.930267775100	1112.753980799896	205.309755332616	341.502780191136	931.223295033791	400.355833860269	600.701832879902	849.402728109149	304.174137763330	662.491593483054	883.916868040418	205.377891605753	598.929309476282	740.961715873153	43.699261062674	564.920461963439	912.353169978531	96.391430727992	602.992180045788	823.455320884311	35.839470231189	639.562102370857	1032.017608382595	42.857853093971	630.107948171568	1013.249858063646	39.629052278031	385.546322242889	1080.590808526284	37.692794674643	299.763603148275	1162.155448936626	103.822832064843	318.477693584067	1289.059323850765	58.541798684599	280.037941085242	817.542195835829	1100.621231417573	252.953597351205	811.525745581805	838.373616075096	257.556583007935	1162.661362270356	1130.400581558029	794.500655601906	1396.417037220260	1205.643742135038	734.949787916084	
74	3.790714285714	807.763391495352	1002.545786455181	524.377054559270	948.866854065141	1432.235933976832	332.483472779985	1076.671632898625	1365.314584614108	475.416237325114	1018.561509123079	1433.206597922439	661.741296001123	951.727716129547	1491.001563349656	492.044976594259	1044.466741898166	937.110515287730	619.816735184591	1006.852047646049	956.890039695277	346.594657026919	1036.861296157867	723.803890934615	598.104813391173	930.341792798109	632.517318939623	663.172794516235	988.449549252246	565.403962178635	585.155879984678	969.413766653199	481.938264344275	591.935433450740	1078.568879416639	764.744686193863	368.997615217986	1013.547400098133	637.260199893493	299.369384805947	1119.603682903251	575.841281314236	350.815894912456	1137.554396528750	506.194845881653	349.233532710465	1114.168220394710	432.880619567715	339.500941081561	1030.044701790107	311.980855007886	293.494948758122	1106.762266474443	202.846952527840	343.276000466478	929.926462507310	399.397649634230	598.948698853889	847.001094255456	304.425011591368	661.194184236090	880.147760263522	204.997898430736	598.059190981398	735.626287454956	44.227663407462	564.854676631882	907.106165142450	96.435984885992	602.882606600556	818.091415096148	36.030143652664	639.470726119587	1026.640204660710	42.495375823266	630.165559880652	1004.384623721987	39.179094055454	387.076604123055	1071.984179963168	36.677507446848	301.401234218449	1154.670259442373	101.096618312119	321.015941823991	1281.253215219093	53.731105713439	282.699376460099	822.171917911747	1098.353437296543	247.551910123896	822.491767331815	835.880204506572	250.242933239568	1157.003074210672	1127.515964575959	791.778400333634	1392.742528214959	1197.517682384994	733.555724221733	
